 <svg width="150" height="151" viewBox="0 0 150 151" fill="none" xmlns="http://www.w3.org/2000/svg"> <path d="M121.875 48.9375H113.125C115.625 45.9375 117.188 42.1875 117.188 38C117.188 28.5 109.5 20.8125 100 20.8125C89.5 20.8125 80.25 26.375 75 34.625C69.75 26.375 60.5 20.8125 50 20.8125C40.5 20.8125 32.8125 28.5 32.8125 38C32.8125 42.1875 34.375 45.9375 36.875 48.9375H28.125C23.8125 48.9375 20.3125 52.4375 20.3125 56.75V72.375C20.3125 76.125 23 79.125 26.5625 79.875V122.375C26.5625 126.688 30.0625 130.188 34.375 130.188H115.625C119.938 130.188 123.438 126.688 123.438 122.375V79.875C127 79.125 129.688 76.125 129.688 72.375V56.75C129.688 52.4375 126.188 48.9375 121.875 48.9375ZM120.312 70.8125H79.6875V58.3125H120.312V70.8125ZM100 30.1875C104.312 30.1875 107.812 33.6875 107.812 38C107.812 42.3125 104.312 45.8125 100 45.8125H80.25C82.375 36.875 90.4375 30.1875 100 30.1875ZM50 30.1875C59.5625 30.1875 67.625 36.875 69.75 45.8125H50C45.6875 45.8125 42.1875 42.3125 42.1875 38C42.1875 33.6875 45.6875 30.1875 50 30.1875ZM29.6875 58.3125H70.3125V70.8125H29.6875V58.3125ZM35.9375 80.1875H70.3125V120.812H35.9375V80.1875ZM114.062 120.812H79.6875V80.1875H114.062V120.812Z" fill="#3B82F6"/> </svg>
